<svg width="29" height="29" viewBox="0 0 29 29" fill="none" xmlns="http://www.w3.org/2000/svg">
<circle cx="7" cy="5.83008" r="1.5" fill="white"/>
<circle cx="12" cy="5.83008" r="1.5" fill="white"/>
<circle cx="17" cy="5.83008" r="1.5" fill="white"/>
<path d="M23.5 27.3301L23.5 26.3301L23.5 27.3301ZM5.5 27.3301L5.5 28.3301L5.5 27.3301ZM23.5 0.33008L5.5 0.330078L5.5 2.33008L23.5 2.33008L23.5 0.33008ZM2.5 23.3301L2.5 5.33008L0.5 5.33008L0.500002 23.3301L2.5 23.3301ZM23.5 26.3301L5.5 26.3301L5.5 28.3301L23.5 28.3301L23.5 26.3301ZM28.5 23.3301L28.5 5.33009L26.5 5.33009L26.5 23.3301L28.5 23.3301ZM23.5 28.3301C26.2614 28.3301 28.4999 26.0915 28.5 23.3301L26.5 23.3301C26.4999 24.9869 25.1568 26.3301 23.5 26.3301L23.5 28.3301ZM23.5 2.33008C25.1569 2.33008 26.5 3.67323 26.5 5.33009L28.5 5.33009C28.5 2.56866 26.2614 0.33008 23.5 0.33008L23.5 2.33008ZM5.5 0.330078C2.73858 0.330078 0.5 2.56865 0.5 5.33008L2.5 5.33008C2.5 3.67322 3.84315 2.33008 5.5 2.33008L5.5 0.330078ZM0.500002 23.3301C0.500002 26.0915 2.73858 28.3301 5.5 28.3301L5.5 26.3301C3.84315 26.3301 2.5 24.9869 2.5 23.3301L0.500002 23.3301Z" fill="white"/>
<path d="M2.50036 10.3301L27.0664 10.3302" stroke="white" stroke-width="2" stroke-linecap="round"/>
</svg>
