<svg width="29" height="23" viewBox="0 0 29 23" fill="none" xmlns="http://www.w3.org/2000/svg">
<path d="M2 4.83008L12.2508 11.8006C13.6082 12.7237 15.3918 12.7237 16.7492 11.8006L27 4.83008" stroke="white" stroke-width="2" stroke-linecap="round" stroke-linejoin="round"/>
<path d="M1.5 5.3301L2.5 5.3301L1.5 5.3301ZM5.5 21.3301L5.5 22.3301L5.5 21.3301ZM1.5 17.3301L0.500003 17.3301L1.5 17.3301ZM23.5 21.3301L23.5 20.3301L23.5 21.3301ZM23.5 20.3301L5.5 20.3301L5.5 22.3301L23.5 22.3301L23.5 20.3301ZM26.5 5.33008L26.5 17.3301L28.5 17.3301L28.5 5.33008L26.5 5.33008ZM0.500002 5.3301L0.500003 17.3301L2.5 17.3301L2.5 5.3301L0.500002 5.3301ZM23.5 0.330082L5.5 0.3301L5.5 2.3301L23.5 2.33008L23.5 0.330082ZM28.5 5.33008C28.5 2.56866 26.2614 0.330079 23.5 0.330082L23.5 2.33008C25.1569 2.33008 26.5 3.67323 26.5 5.33008L28.5 5.33008ZM2.5 5.3301C2.5 3.67325 3.84315 2.3301 5.5 2.3301L5.5 0.3301C2.73858 0.330103 0.500002 2.56868 0.500002 5.3301L2.5 5.3301ZM5.5 20.3301C3.84315 20.3301 2.5 18.9869 2.5 17.3301L0.500003 17.3301C0.500003 20.0915 2.73858 22.3301 5.5 22.3301L5.5 20.3301ZM23.5 22.3301C26.2614 22.3301 28.5 20.0915 28.5 17.3301L26.5 17.3301C26.5 18.9869 25.1569 20.3301 23.5 20.3301L23.5 22.3301Z" fill="white"/>
</svg>
