<svg width="20" height="20" viewBox="0 0 20 20" fill="none" xmlns="http://www.w3.org/2000/svg">
<path d="M1.11719 10.6007H1.78385H1.11719ZM1.11719 17.6951H0.450521H1.11719ZM17.6627 19.0688V18.4021V19.0688ZM2.49598 19.0688V19.7355H2.49598L2.49598 19.0688ZM19.0414 10.6008H18.3748H19.0414ZM19.0414 17.6951H19.7081H19.0414ZM18.3118 8.73916L17.8224 9.1918L18.3118 8.73916ZM12.1073 2.03025L11.6179 2.4829L12.1073 2.03025ZM8.05133 2.03024L8.54077 2.48289L8.05133 2.03024ZM1.84679 8.73912L1.35734 8.28647H1.35734L1.84679 8.73912ZM7.32174 12.2004H7.9884H7.32174ZM7.32174 18.382H6.65507H7.32174ZM12.1475 19.0688V18.4021V19.0688ZM8.01113 19.0688V19.7355V19.0688ZM12.8369 12.2005H13.5036H12.8369ZM12.8369 18.3819H12.1702H12.8369ZM12.1475 11.5136L12.1475 12.1803L12.1475 11.5136ZM8.01113 11.5136L8.01113 12.1803H8.01113L8.01113 11.5136ZM0.450521 10.6007L0.450521 17.6951H1.78385L1.78385 10.6007H0.450521ZM17.6627 18.4021L2.49598 18.4021L2.49598 19.7355L17.6627 19.7355V18.4021ZM18.3748 10.6008V17.6951H19.7081V10.6008H18.3748ZM18.8013 8.28651L12.5967 1.5776L11.6179 2.4829L17.8224 9.1918L18.8013 8.28651ZM7.56189 1.57759L1.35734 8.28647L2.33623 9.19177L8.54077 2.48289L7.56189 1.57759ZM12.5967 1.5776C11.2407 0.111291 8.91797 0.111284 7.56189 1.57759L8.54077 2.48289C9.36904 1.5873 10.7896 1.5873 11.6179 2.4829L12.5967 1.5776ZM19.7081 10.6008C19.7081 9.74286 19.3842 8.91676 18.8013 8.28651L17.8224 9.1918C18.1778 9.57612 18.3748 10.0791 18.3748 10.6008H19.7081ZM1.78385 10.6007C1.78385 10.0791 1.9808 9.57609 2.33623 9.19177L1.35734 8.28647C0.774471 8.91672 0.450521 9.74282 0.450521 10.6007H1.78385ZM0.450521 17.6951C0.450521 18.8243 1.36864 19.7355 2.49598 19.7355L2.49598 18.4021C2.10034 18.4021 1.78385 18.0832 1.78385 17.6951H0.450521ZM17.6627 19.7355C18.79 19.7355 19.7081 18.8243 19.7081 17.6951H18.3748C18.3748 18.0832 18.0583 18.4021 17.6627 18.4021V19.7355ZM6.65507 12.2004L6.65507 18.382H7.9884L7.9884 12.2004H6.65507ZM12.1475 18.4021H8.01113V19.7355H12.1475V18.4021ZM12.1702 12.2005L12.1702 18.3819H13.5036L13.5036 12.2005H12.1702ZM12.1475 10.847L8.01114 10.8469L8.01113 12.1803L12.1475 12.1803L12.1475 10.847ZM13.5036 12.2005C13.5036 11.4506 12.8941 10.847 12.1475 10.847L12.1475 12.1803C12.1522 12.1803 12.155 12.1811 12.157 12.1819C12.1594 12.183 12.162 12.1846 12.1644 12.1871C12.1669 12.1895 12.1683 12.1919 12.1691 12.1936C12.1696 12.1949 12.1702 12.1968 12.1702 12.2005H13.5036ZM7.9884 12.2004C7.9884 12.1968 7.98901 12.1949 7.98957 12.1936C7.99032 12.1919 7.99175 12.1895 7.99418 12.1871C7.99661 12.1846 7.99926 12.1829 8.00167 12.1819C8.00364 12.1811 8.00641 12.1803 8.01113 12.1803L8.01114 10.8469C7.26454 10.8469 6.65507 11.4506 6.65507 12.2004H7.9884ZM6.65507 18.382C6.65507 19.1318 7.26454 19.7355 8.01113 19.7355V18.4021C8.00641 18.4021 8.00364 18.4013 8.00167 18.4005C7.99926 18.3994 7.99661 18.3978 7.99418 18.3953C7.99175 18.3929 7.99032 18.3905 7.98957 18.3888C7.98901 18.3875 7.9884 18.3856 7.9884 18.382H6.65507ZM12.1475 19.7355C12.8941 19.7355 13.5036 19.1318 13.5036 18.3819H12.1702C12.1702 18.3856 12.1696 18.3875 12.1691 18.3888C12.1683 18.3905 12.1669 18.3929 12.1644 18.3953C12.162 18.3978 12.1594 18.3994 12.157 18.4005C12.155 18.4013 12.1522 18.4021 12.1475 18.4021V19.7355Z" fill="white"/>
</svg>
