<svg width="29" height="29" viewBox="0 0 29 29" fill="none" xmlns="http://www.w3.org/2000/svg">
<path d="M14.5 1.33008C16.1569 1.33008 17.5 2.67322 17.5 4.33008V4.33008C17.5 4.60253 17.6776 4.84157 17.9335 4.93511C18.1993 5.03227 18.4598 5.14038 18.7145 5.25892C18.9619 5.37401 19.2569 5.33058 19.4498 5.1377V5.1377C20.6213 3.96613 22.5208 3.96613 23.6924 5.1377C24.864 6.30927 24.864 8.2088 23.6924 9.38037V9.38037C23.4995 9.57325 23.4561 9.86825 23.5712 10.1156C23.6897 10.3703 23.7978 10.6308 23.895 10.8966C23.9885 11.1525 24.2276 11.3301 24.5 11.3301V11.3301C26.1569 11.3301 27.5 12.6732 27.5 14.3301C27.5 15.9869 26.1569 17.3301 24.5 17.3301V17.3301C24.2276 17.3301 23.9885 17.5076 23.895 17.7635C23.7978 18.0294 23.6897 18.2899 23.5711 18.5446C23.456 18.792 23.4995 19.087 23.6924 19.2798V19.2798C24.864 20.4514 24.864 22.3509 23.6924 23.5225C22.5208 24.694 20.6213 24.694 19.4498 23.5225V23.5225C19.2569 23.3296 18.9619 23.2861 18.7145 23.4012C18.4598 23.5198 18.1993 23.6279 17.9335 23.725C17.6776 23.8186 17.5 24.0576 17.5 24.3301V24.3301C17.5 25.9869 16.1569 27.3301 14.5 27.3301C12.8431 27.3301 11.5 25.9869 11.5 24.3301V24.3301C11.5 24.0576 11.3224 23.8186 11.0665 23.725C10.8007 23.6279 10.5402 23.5198 10.2855 23.4012C10.0382 23.2861 9.74317 23.3296 9.55026 23.5225V23.5225C8.37869 24.694 6.47919 24.694 5.30762 23.5225C4.13605 22.3509 4.13605 20.4514 5.30762 19.2798V19.2798C5.50052 19.087 5.54397 18.792 5.42887 18.5446C5.31031 18.2899 5.20217 18.0294 5.105 17.7635C5.01146 17.5076 4.77243 17.3301 4.5 17.3301V17.3301C2.84314 17.3301 1.5 15.9869 1.5 14.3301C1.5 12.6732 2.84314 11.3301 4.5 11.3301V11.3301C4.77243 11.3301 5.01146 11.1525 5.105 10.8966C5.20217 10.6308 5.3103 10.3703 5.42885 10.1155C5.54394 9.86824 5.5005 9.57326 5.30762 9.38037V9.38037C4.13605 8.20874 4.13605 6.30927 5.30762 5.1377C6.47919 3.96613 8.37869 3.96613 9.55026 5.1377V5.1377C9.74315 5.33058 10.0381 5.37402 10.2854 5.25893C10.5402 5.14039 10.8007 5.03227 11.0665 4.93511C11.3224 4.84157 11.5 4.60253 11.5 4.33008V4.33008C11.5 2.67322 12.8431 1.33008 14.5 1.33008Z" stroke="white" stroke-width="2"/>
<circle cx="14.5" cy="14.3301" r="5" stroke="white" stroke-width="2"/>
</svg>
